<svg class="railroad" viewBox="0 0 870 676" xmlns="http://www.w3.org/2000/svg">
<style type="text/css">
    svg.railroad path {
        stroke-width: 3px;
        stroke: #888;
        fill: transparent;
    }

    svg.railroad text {
        fill: #333;
        font: 14px monospace;
        text-anchor: middle;
    }

    svg.railroad .nonterminal text {
        font-weight: bold;
    }

    svg.railroad text.comment {
        font: italic 12px monospace;
    }

    svg.railroad rect {
        stroke-width: 2px;
        stroke: #777;
        fill: white;
    }

    svg.railroad g.labeledbox > rect {
        stroke-width: 1px;
        stroke: grey;
        stroke-dasharray: 5px;
        fill:rgba(90, 90, 150, .1);
    }</style>
<g class="sequence">
<path d=" M 10 21 a 5 5 0 0 1 5 -5 a 5 5 0 0 1 5 5 a 5 5 0 0 1 -5 5 a 5 5 0 0 1 -5 -5 m 10 0 h 5"/>
<g class="stack">
<path d=" M 35 21 h 12"/>
<path d=" M 263 21 a 12 12 0 0 1 12 12 v 0 a 12 12 0 0 1 -12 12 h -216 m 111 0 l 5 -5 m 0 10 l -5 -5 m -111 0 a 12 12 0 0 0 -12 12 v 0 v 0 a 12 12 0 0 0 12 12 h 0"/>
<g class="sequence">
<g class="terminal">
<rect height="22" rx="10" ry="10" width="108" x="47" y="10"/>
<text x="101" y="26">
create view</text>
</g>
<g class="nonterminal">
<rect height="22" width="52" x="165" y="10"/>
<text x="191" y="26">
view</text>
</g>
<g class="terminal">
<rect height="22" rx="10" ry="10" width="36" x="227" y="10"/>
<text x="245" y="26">
as</text>
</g>
<path d=" M 155 21 h 10"/>
<path d=" M 217 21 h 10"/>
</g>
<path d=" M 799 69 a 12 12 0 0 1 12 12 v 415 m 0 -204 l -5 -5 m 10 0 l -5 5 m 0 204 a 12 12 0 0 1 -12 12 h -752 m 379 0 l 5 -5 m 0 10 l -5 -5 m -379 0 a 12 12 0 0 0 -12 12 v 0 v 0 a 12 12 0 0 0 12 12 h 0"/>
<g class="sequence">
<g class="terminal">
<rect height="22" rx="10" ry="10" width="68" x="47" y="58"/>
<text x="81" y="74">
select</text>
</g>
<g class="repeat">
<path d=" M 125 69 h 12 m 650 0 h 12 m -12 0 a 12 12 0 0 1 12 12 v 392 m 0 -193 l -5 -5 m 10 0 l -5 5 m 0 193 a 12 12 0 0 1 -12 12 m -28 0 h -622 m 314 0 l 5 -5 m 0 10 l -5 -5 m -314 0 a 12 12 0 0 1 -12 -12 v -392 m 0 199 l -5 5 m 10 0 l -5 -5 m 0 -199 a 12 12 0 0 1 12 -12"/>
<g class="terminal">
<rect height="22" rx="10" ry="10" width="28" x="759" y="474"/>
<text x="773" y="490">
,</text>
</g>
<g class="stack">
<path d=" M 137 69 h 12"/>
<path d=" M 349 69 a 12 12 0 0 1 12 12 v 0 a 12 12 0 0 1 -12 12 h -200 m 103 0 l 5 -5 m 0 10 l -5 -5 m -103 0 a 12 12 0 0 0 -12 12 v 35 v 0 a 12 12 0 0 0 12 12 h 0"/>
<g class="sequence">
<g class="nonterminal">
<rect height="22" width="92" x="149" y="58"/>
<text x="195" y="74">
metamodel</text>
</g>
<g class="terminal">
<rect height="22" rx="10" ry="10" width="28" x="251" y="58"/>
<text x="265" y="74">
.</text>
</g>
<g class="nonterminal">
<rect height="22" width="60" x="289" y="58"/>
<text x="319" y="74">
class</text>
</g>
<path d=" M 241 69 h 10"/>
<path d=" M 279 69 h 10"/>
</g>
<path d=" M 763 152 h 0 a 12 12 0 0 0 12 -12 v -59 m 0 32 l -5 5 m 10 0 l -5 -5 m 0 -32 a 12 12 0 0 1 12 -12"/>
<g class="choice">
<path d=" M 149 152 h 24 m 152 0 h 438 m -216 0 l -5 -5 m 0 10 l 5 -5 m 216 0"/>
<g class="labeledbox">
<rect height="66" width="152" x="173" y="105"/>
<path d=" M 173 152 h 8 m 114 0 h 30"/>
<text class="comment" x="249" y="128">
select one feature</text>
<g class="sequence">
<g class="terminal">
<rect height="22" rx="10" ry="10" width="28" x="181" y="141"/>
<text x="195" y="157">
.</text>
</g>
<g class="nonterminal">
<rect height="22" width="76" x="219" y="141"/>
<text x="257" y="157">
feature</text>
</g>
<path d=" M 209 152 h 10"/>
</g>
</g>
<path d=" M 149 152 a 12 12 0 0 1 12 12 v 17 m 590 0 v -17 a 12 12 0 0 1 12 -12"/>
<path d=" M 161 216 v 41 m 590 0 v -41"/>
<path d=" M 161 292 v 41 m 590 0 v -41"/>
<path d=" M 161 181 v 35 a 12 12 0 0 0 12 12 m 159 0 h 407 m -200 0 l -5 -5 m 0 10 l 5 -5 m 200 0 a 12 12 0 0 0 12 -12 v -35"/>
<g class="labeledbox">
<rect height="66" width="159" x="173" y="181"/>
<path d=" M 173 228 h 8 m 36 0 h 115 m -54 0 l -5 -5 m 0 10 l 5 -5 m 54 0"/>
<text class="comment" x="252" y="204">
select all features</text>
<g class="terminal">
<rect height="22" rx="10" ry="10" width="36" x="181" y="217"/>
<text x="199" y="233">
.*</text>
</g>
</g>
<path d=" M 161 257 v 35 a 12 12 0 0 0 12 12 m 418 0 h 148 m -71 0 l -5 -5 m 0 10 l 5 -5 m 71 0 a 12 12 0 0 0 12 -12 v -35"/>
<g class="labeledbox">
<rect height="66" width="418" x="173" y="257"/>
<path d=" M 173 304 h 8 m 402 0 h 8"/>
<text class="comment" x="259" y="280">
create a new relation</text>
<g class="sequence">
<g class="terminal">
<rect height="22" rx="10" ry="10" width="52" x="181" y="293"/>
<text x="207" y="309">
join</text>
</g>
<g class="nonterminal">
<rect height="22" width="92" x="243" y="293"/>
<text x="289" y="309">
metamodel</text>
</g>
<g class="terminal">
<rect height="22" rx="10" ry="10" width="28" x="345" y="293"/>
<text x="359" y="309">
.</text>
</g>
<g class="nonterminal">
<rect height="22" width="60" x="383" y="293"/>
<text x="413" y="309">
class</text>
</g>
<g class="terminal">
<rect height="22" rx="10" ry="10" width="36" x="453" y="293"/>
<text x="471" y="309">
as</text>
</g>
<g class="nonterminal">
<rect height="22" width="84" x="499" y="293"/>
<text x="541" y="309">
relation</text>
</g>
<path d=" M 233 304 h 10"/>
<path d=" M 335 304 h 10"/>
<path d=" M 373 304 h 10"/>
<path d=" M 443 304 h 10"/>
<path d=" M 489 304 h 10"/>
</g>
</g>
<path d=" M 161 333 v 35 a 12 12 0 0 0 12 12 m 566 0 h 0 a 12 12 0 0 0 12 -12 v -35"/>
<g class="labeledbox">
<rect height="131" width="566" x="173" y="333"/>
<path d=" M 173 380 h 8 m 550 0 h 8"/>
<text class="comment" x="375" y="356">
shortcut syntax for multiple features or new relations</text>
<g class="sequence">
<g class="terminal">
<rect height="22" rx="10" ry="10" width="28" x="181" y="369"/>
<text x="195" y="385">
[</text>
</g>
<g class="repeat">
<path d=" M 219 380 h 12 m 450 0 h 12 m -12 0 a 12 12 0 0 1 12 12 v 41 a 12 12 0 0 1 -12 12 m -28 0 h -422 m 214 0 l 5 -5 m 0 10 l -5 -5 m -214 0 a 12 12 0 0 1 -12 -12 v -41 a 12 12 0 0 1 12 -12"/>
<g class="terminal">
<rect height="22" rx="10" ry="10" width="28" x="653" y="434"/>
<text x="667" y="450">
,</text>
</g>
<g class="choice">
<path d=" M 231 380 h 24 m 76 0 h 350 m -172 0 l -5 -5 m 0 10 l 5 -5 m 172 0"/>
<g class="nonterminal">
<rect height="22" width="76" x="255" y="369"/>
<text x="293" y="385">
feature</text>
</g>
<path d=" M 231 380 a 12 12 0 0 1 12 12 v 9 m 426 0 v -9 a 12 12 0 0 1 12 -12"/>
<path d=" M 243 401 v 0 a 12 12 0 0 0 12 12 m 402 0 h 0 a 12 12 0 0 0 12 -12 v 0"/>
<g class="sequence">
<g class="terminal">
<rect height="22" rx="10" ry="10" width="52" x="255" y="402"/>
<text x="281" y="418">
join</text>
</g>
<g class="nonterminal">
<rect height="22" width="92" x="317" y="402"/>
<text x="363" y="418">
metamodel</text>
</g>
<g class="terminal">
<rect height="22" rx="10" ry="10" width="28" x="419" y="402"/>
<text x="433" y="418">
.</text>
</g>
<g class="nonterminal">
<rect height="22" width="60" x="457" y="402"/>
<text x="487" y="418">
class</text>
</g>
<g class="terminal">
<rect height="22" rx="10" ry="10" width="36" x="527" y="402"/>
<text x="545" y="418">
as</text>
</g>
<g class="nonterminal">
<rect height="22" width="84" x="573" y="402"/>
<text x="615" y="418">
relation</text>
</g>
<path d=" M 307 413 h 10"/>
<path d=" M 409 413 h 10"/>
<path d=" M 447 413 h 10"/>
<path d=" M 517 413 h 10"/>
<path d=" M 563 413 h 10"/>
</g>
</g>
</g>
<g class="terminal">
<rect height="22" rx="10" ry="10" width="28" x="703" y="369"/>
<text x="717" y="385">
]</text>
</g>
<path d=" M 209 380 h 10"/>
<path d=" M 693 380 h 10"/>
</g>
</g>
</g>
</g>
</g>
<path d=" M 115 69 h 10"/>
</g>
<path d=" M 381 532 a 12 12 0 0 1 12 12 v 31 a 12 12 0 0 1 -12 12 h -334 m 170 0 l 5 -5 m 0 10 l -5 -5 m -170 0 a 12 12 0 0 0 -12 12 v 12 v 0 a 12 12 0 0 0 12 12 h 0"/>
<g class="sequence">
<g class="terminal">
<rect height="22" rx="10" ry="10" width="52" x="47" y="521"/>
<text x="73" y="537">
from</text>
</g>
<g class="repeat">
<path d=" M 109 532 h 12 m 248 0 h 12 m -12 0 a 12 12 0 0 1 12 12 v 8 a 12 12 0 0 1 -12 12 m -28 0 h -220 m 113 0 l 5 -5 m 0 10 l -5 -5 m -113 0 a 12 12 0 0 1 -12 -12 v -8 a 12 12 0 0 1 12 -12"/>
<g class="terminal">
<rect height="22" rx="10" ry="10" width="28" x="341" y="553"/>
<text x="355" y="569">
,</text>
</g>
<g class="sequence">
<g class="nonterminal">
<rect height="22" width="100" x="121" y="521"/>
<text x="171" y="537">
URI-string</text>
</g>
<g class="terminal">
<rect height="22" rx="10" ry="10" width="36" x="231" y="521"/>
<text x="249" y="537">
as</text>
</g>
<g class="nonterminal">
<rect height="22" width="92" x="277" y="521"/>
<text x="323" y="537">
metamodel</text>
</g>
<path d=" M 221 532 h 10"/>
<path d=" M 267 532 h 10"/>
</g>
</g>
<path d=" M 99 532 h 10"/>
</g>
<path d=" M 445 623 h 366 m -180 0 l -5 -5 m 0 10 l 5 -5 m 180 0 a 12 12 0 0 0 12 -12 v -578 m 0 292 l -5 5 m 10 0 l -5 -5 m 0 -292 a 12 12 0 0 1 12 -12"/>
<g class="optional">
<path d=" M 47 623 h 24 m -24 0 a 12 12 0 0 0 12 -12 v 0 a 12 12 0 0 1 12 -12 h 350 m -172 0 l -5 -5 m 0 10 l 5 -5 m 172 0 a 12 12 0 0 1 12 12 v 0 a 12 12 0 0 0 12 12 h -24"/>
<g class="sequence">
<g class="terminal">
<rect height="22" rx="10" ry="10" width="60" x="71" y="612"/>
<text x="101" y="628">
where</text>
</g>
<g class="repeat">
<path d=" M 141 623 h 12 m 256 0 h 12 m -12 0 a 12 12 0 0 1 12 12 v 8 a 12 12 0 0 1 -12 12 m -28 0 h -228 m 117 0 l 5 -5 m 0 10 l -5 -5 m -117 0 a 12 12 0 0 1 -12 -12 v -8 a 12 12 0 0 1 12 -12"/>
<g class="terminal">
<rect height="22" rx="10" ry="10" width="28" x="381" y="644"/>
<text x="395" y="660">
,</text>
</g>
<g class="sequence">
<g class="nonterminal">
<rect height="22" width="108" x="153" y="612"/>
<text x="207" y="628">
bool-expr</text>
</g>
<g class="terminal">
<rect height="22" rx="10" ry="10" width="44" x="271" y="612"/>
<text x="293" y="628">
for</text>
</g>
<g class="nonterminal">
<rect height="22" width="84" x="325" y="612"/>
<text x="367" y="628">
relation</text>
</g>
<path d=" M 261 623 h 10"/>
<path d=" M 315 623 h 10"/>
</g>
</g>
<path d=" M 131 623 h 10"/>
</g>
</g>
</g>
<path d=" M 845 21 h 5 a 5 5 0 0 1 5 -5 a 5 5 0 0 1 5 5 a 5 5 0 0 1 -5 5 a 5 5 0 0 1 -5 -5"/>
<path d=" M 25 21 h 10"/>
<path d=" M 835 21 h 10"/>
</g>
</svg>
